<svg xmlns="http://www.w3.org/2000/svg" id="Objects" viewBox="0 0 340.96665 200" width="340.967" height="200"><style id="style3">.st0{fill:#fff}</style><g id="g5" transform="translate(-9.8 -11.5)" fill="#fff"><g id="g7"><g id="g9"><g id="g11"><path class="st0" d="M157.1 36.7c2 .7 4.4-.6 5.9-4.7 1.5-4.1.8-13.1.8-13.1s-6.5 6.3-8 10.4c-1.6 4-.7 6.6 1.3 7.4z" id="path13"/></g><g id="g15"><path class="st0" d="M35 92.6c.7-2-.6-4.4-4.7-5.9-4.1-1.5-13.1-.8-13.1-.8s6.3 6.5 10.4 8c4.1 1.6 6.7.7 7.4-1.3z" id="path17"/></g><g id="g19"><path class="st0" d="M37.7 165.2c-.9-1.9-3.5-2.6-7.5-.8s-9.8 8.8-9.8 8.8 9.1.1 13-1.7c4-1.9 5.2-4.3 4.3-6.3z" id="path21"/></g><g id="g23"><path class="st0" d="M84.5 39.3c1.9-.9 2.6-3.5.8-7.5S76.5 22 76.5 22s-.1 9.1 1.7 13c1.9 4 4.3 5.2 6.3 4.3z" id="path25"/></g><g id="g27"><path class="st0" d="M61.1 196.8c-1.6-1.4-4.3-1-7.2 2.3-2.9 3.3-5.4 12-5.4 12s8.3-3.6 11.2-6.9c2.9-3.2 3-6 1.4-7.4z" id="path29"/><path class="st0" d="M186.9 54.5c1.6 1.4 4.3 1 7.2-2.3 2.9-3.3 5.4-12 5.4-12s-8.3 3.6-11.2 6.9c-2.9 3.3-3 6-1.4 7.4z" id="path31"/></g><g id="g33"><path class="st0" d="M52.9 62.8c1.4-1.6 1-4.3-2.3-7.2-3.3-2.9-12-5.4-12-5.4s3.6 8.3 6.9 11.2c3.2 2.9 5.9 3 7.4 1.4z" id="path35"/></g><g id="g37"><path class="st0" d="M29.2 131.5c-.1-2.1-2.4-3.7-6.7-3.5-4.4.3-12.3 4.6-12.3 4.6s8.4 3.4 12.8 3.1c4.4-.2 6.4-2.1 6.2-4.2z" id="path39"/></g><g id="g41"><path class="st0" d="M118.2 30.9c2.1-.1 3.7-2.4 3.5-6.7-.3-4.4-4.6-12.3-4.6-12.3s-3.4 8.4-3.1 12.8c.2 4.3 2 6.3 4.2 6.2z" id="path43"/></g></g><g id="g45"><path class="st0" d="M47.7 103.1c17.8-47.9 71-72.2 118.9-54.4 9 3.4 17.2 8 24.4 13.6-9.1-9.1-20.3-16.5-33.2-21.3-47.9-17.9-101.1 6.5-118.9 54.3-14.4 38.8-1.1 81.2 30 105.3-24.7-24.8-34.2-62.6-21.2-97.5z" id="path47"/></g></g><g id="g49"><path class="st0" d="M145.3 88.7h-.4c-.3 0-.8.2-1.2.6-.2.2-.3.4-.4.6-.1.2-.1.4-.1.6 0 0 0 .1-.1.1h-.1c-.1-.1-.2-.3-.4-.4-.2-.1-.4-.2-.7-.3-.5-.1-1 0-1.3.2-.2.1-.3.1-.4.2l-.1.1h.5c.3 0 .7 0 1.1.1.4.1.8.2 1.1.4.1.1.3.1.3.2 0 0 .2 0 .2-.1s.1-.2.2-.3c.2-.3.4-.6.7-.9.3-.3.6-.5.9-.7.1-.2.2-.3.2-.4h0z" id="path51"/><path class="st0" d="M238.6 111.8h-.4c-.3 0-.8.2-1.2.6-.2.2-.3.4-.4.6-.1.2-.1.4-.1.6 0 0 0 .1-.1.1h-.1c-.1-.1-.2-.3-.4-.4-.2-.1-.4-.2-.7-.3-.5-.1-1 0-1.3.2-.2.1-.3.1-.4.2l-.1.1h.5c.3 0 .7 0 1.1.1.4.1.8.2 1.1.4.1.1.3.1.3.2 0 0 .2 0 .2-.1s.1-.2.2-.3c.2-.3.4-.6.7-.9.3-.3.6-.5.9-.7.1-.2.2-.2.2-.4h0z" id="path53"/><path class="st0" d="M227.9 108.3c.1-.2.2-.3.4-.5 0-.1-.1-.1-.1-.2-.4-.6-1.2-1.5-2.4-2-.6-.2-1.2-.3-1.8-.3-.6 0-1 .2-1.4.3h-.4c-.1-.1-.1-.2 0-.3l.1-.1c.2-.4.4-.8.5-1.4.1-.5.1-1.2-.1-1.8-.3-1.3-1.1-2.1-1.7-2.6-.3-.3-.6-.4-.8-.5-.2-.1-.3-.2-.3-.2s0 .1.1.3c.1.2.2.5.3.8.3.7.6 1.6.9 2.5.3 1 .3 1.9.3 2.6v.9c0 .1.2.3.3.3.2 0 .5 0 .9.1.7.1 1.6.3 2.5.6.9.4 1.8.8 2.4 1.2.2.2.2.3.3.3z" id="path55"/><path class="st0" d="M159.1 104.3c-.2-.1-.5-.2-.9-.3-.8-.2-1.9-.3-3.1.1-.6.2-1.1.6-1.5 1-.4.4-.7.8-.9 1.2 0 .1-.2.2-.3.1-.1-.1-.2-.1-.2-.2-.1-.4-.3-.9-.6-1.3-.3-.5-.7-.9-1.3-1.3-1.1-.7-2.2-.8-3-.8-.4 0-.7.1-.9.1-.2 0-.3.1-.3.1s.1.1.3.2c.2.1.5.2.8.4.7.3 1.5.8 2.4 1.3.8.5 1.5 1.2 2 1.7.2.3.4.5.6.7.1.1.3.1.4.1.2-.1.4-.3.7-.5.6-.4 1.4-.9 2.3-1.2.9-.3 1.9-.6 2.6-.7.4-.1.7-.1.9-.2.2 0 .3-.1.3-.1s-.1-.3-.3-.4z" id="path57"/><path class="st0" d="M225.7 113.9c-.2-.1-.5-.2-.9-.3-.8-.2-1.9-.3-3.1.1-.6.2-1.1.6-1.5 1-.4.4-.7.8-.9 1.2v.1c0 .1-.1.1-.2.1s-.2-.1-.2-.2v-.1c-.1-.4-.3-.9-.6-1.3-.3-.5-.7-.9-1.3-1.3-1.1-.7-2.2-.8-3-.8-.4 0-.7.1-.9.1-.2 0-.3.1-.3.1s.1.1.3.2c.2.1.5.2.8.4.7.3 1.5.8 2.4 1.3.8.5 1.5 1.2 2 1.7.2.3.4.5.6.7.1.1.3.1.4.1.2-.1.4-.3.7-.5.6-.4 1.4-.9 2.3-1.2.9-.3 1.9-.6 2.6-.7.4-.1.7-.1.9-.2.2 0 .3-.1.3-.1s-.2-.3-.4-.4z" id="path59"/><path class="st0" id="polygon61" d="M219.9 126.7l-11.9 3.6-25.8-2.2-8.7 2-10.8 3.3 95.7-1-10.6-12.5-4.5 3.8-3.6-1.8-3.4 2.7-7.1 2.7-4.5.6z"/><path class="st0" d="M201.9 111.5l2.1.3 4.6-2.7s-2.4-1.5-4.1-.9c0 0 .4-.4 1-.6 0 0-2.1 0-4.5 1l.8-1.7-1.2.8s2-4.8-2.5-8.2l-.2 2.2-1.6-1.3s.7 2.8.3 6.2c-.9-3-2.3-4.3-2.3-4.3.4.5.6 2.5.6 2.5-1.6-3.5-6.5-3.5-6.5-3.5 1.9 1 4.4 6.4 4.4 6.4l-.3.1c-2-.5-4.7-.5-8 .6l2.3.7-1.3.4 5.2 5.5 1-.3-.3.7c-.3.2-.7.4-1.1.7-.5.3-1.1.7-1.7 1.1-.6.4-1.2.9-1.9 1.4-.7.5-1.4 1-2.1 1.6-.7.6-1.4 1.2-2.2 1.8-.7.6-1.4 1.3-2.1 2l-.5.5c-.2.2-.3.4-.5.5-.3.4-.7.7-1 1.1-.1.1-.2.2-.2.3 0-.2.1-.4.1-.6.1-.6.1-1.2.2-1.8 0-.6.1-1.3.1-1.9v-2-2c0-.7-.1-1.4-.1-2 0-.3-.1-.7-.1-1l-.1-1c-.1-1.4-.3-2.7-.5-4-.2-1.3-.4-2.6-.7-3.8-.3-1.2-.5-2.4-.8-3.6-.3-1.1-.6-2.2-.8-3.2-.3-1-.5-1.9-.8-2.6-.2-.6-.4-1.2-.5-1.6l.3-1 .8 1.1 10.3-1.2-1-1.5 3 1.3c-2.5-4.1-5.5-6.3-8-7.6l-.2-.3s7.3-3.6 10.2-3c0 0-5.2-4.4-10-2 0 0 2-1.8 2.8-2.1 0 0-2.7.2-6.2 2.6 2.6-3.9 5.8-6.3 5.8-6.3H179l1.7-2.5c-7.8-.3-9.8 6.6-9.8 6.6l-.6-1.8-.6 2.5c-1.7-3.1-3.9-5-3.9-5 .4.8.5 1.6.5 1.6-1.2-2.2-5.2-2.6-5.2-2.6l2.6 6.9 2.4 1.5c-11-3-13.8 4.8-13.8 4.8l4-2.6-.8 1.7c3.1 0 5.7.8 7.1 1.4-5 .2-7.7 2.1-7.7 2.1.8-.4 3.5-.2 3.5-.2-5.2 1.3-6.3 8-6.3 8 1.8-2.4 9.7-4.3 9.7-4.3l.1 1.6 3.3-2.8c-1.7 1.9-3.9 5.6-3.3 11.6l1.4-2.4.1 1.5 7.9-4.3v-1.2l.9.6v-1.4c.1.3.2.7.3 1.1.2.8.4 1.7.6 2.6.2 1 .5 2 .7 3.1.2 1.1.4 2.3.6 3.5.2 1.2.4 2.5.5 3.7.1 1.3.3 2.6.3 3.9l.1 1v4.8c0 .6-.1 1.2-.1 1.8-.1.6-.1 1.2-.2 1.8-.1.6-.2 1.1-.2 1.7-.1.5-.2 1.1-.3 1.6-.1.5-.2 1-.3 1.4-.1.4-.3.9-.4 1.3-.1.2-.1.4-.2.6-.1.2-.1.4-.2.5-.1.2-.1.3-.2.5s-.1.3-.2.5c-.1.3-.2.6-.4.8 0 0 0 .1-.1.1 1.5 0 2.9 0 4.3-.1l.3-.6c.2-.3.4-.7.6-1 .2-.3.5-.7.7-1.1.3-.4.5-.7.8-1.1.3-.4.5-.7.8-1.1.3-.4.6-.7.9-1.1.2-.2.3-.4.5-.5l.5-.5c.6-.7 1.3-1.4 2-2 .7-.6 1.3-1.3 2-1.9.7-.6 1.3-1.1 2-1.7.6-.5 1.2-1 1.8-1.4.6-.4 1.1-.8 1.6-1.2.2-.2.5-.3.7-.5l-.7.8.8.1-.6.6 2.5 6.1.8-.8-.3 2c3.1-3.1 3.6-6.2 3.5-8l.5 3.1.8-.8s3.5 4.7 3.4 6.9c0 0 2.4-4.3.1-7.4 0 0 1.5 1.2 1.8 1.7 0 0-.6-2.3-3.3-4.7 1.1.3 2.9 1.1 4.6 2.5l.3-1.3 1 3.3c.2-.7 2.2-6.3-5.3-9.7z" id="path63"/></g><g id="g65"><path class="st0" d="M78.2 119.8c2.2 5.6 25.9 0 25.9 0s27.2-5.3 31.7.7c5.5 6.7-4.4 11.3-4.4 11.3s.6-2.6-6.2-4c-8.7-2-29.2.8-29.2.8-7.1 1-20.9 6.4-23.1-5.5-2-11 10.7-10.8 15.3-8.3-7.5-.8-11.7.8-10 5zm10.6 55.8c-2.6 0-5.3-5.3-5.3-5.3 0-12.4 3.7-31.7 3.6-38 0 .2.7-.8 5.9-1.6-.2.2-3.6 43.1-4.2 44.9zm12 5.8c-2.6 0-5.3-5.3-5.3-5.3 0-12.4 4.1-39.4 4-45.7 0-.2.1-1 5.6-1-.2.3-3.8 50.2-4.3 52zm16.5-52c1 .1-2.9 27.8-3.8 35.4 0 0-3.4 19.5 4.2 23.6 8 4.3 16.9.5 15.6-9.5-.4-3.4-4.3-6.6-4.3-6.6l.2-1.3s9.6 6 7.6 15.4c-2.7 10.6-20.3 9-25.4 1.4-3.8-6.3-3.8-12.1-3-25.6 1.4-19.4 2.9-20.8 2.8-33.3.3 0 5.9.2 6.1.5z" id="path67"/><path class="st0" d="M132.3 201.8c-14.3 3.2-15.6-10.2-15.6-10.2l.8-.2c.9 4.5 3.4 11 13.3 6.5 5.2-2.3 8.5-7.6 11.2-18.9.7-3.5 1.1-7.4 1.2-11.8 0-.4-22.3 16.1-14.9-19.4 2.3-10.9-6.5-1.9-7.6-.5 0 0-.3-.1-.8-.8.8-2.6 6.2-8.3 12.9-7.1 6.5 1.2-2.8 24.4.1 27.7 1 1.1 7.7.4 10.3-2.6 0 0 1.7-15.7 1.7-23.6 0-1.1 6.9-.8 7.1.4.4 2.7-3.2 26-5.6 37.9-2.1 10-4.8 19.5-14.1 22.6z" id="path69"/><path class="st0" d="M158.6 139.7l5.5 1 .5 3.5s4.5-6.4 10.3-5.1c2.8 1.2 4.6 4.4 5 9.3 1.1-.5 2.3-1 3.2-1.2l-.1 1.7s-1.3.6-3 1.6c0 2.1-.3 4.5-.8 7.1-2.4 11.3-8.9 14.4-12.5 13.7-4.9-.9-3.1-8.9-.4-13 1.5-2.2 4.7-4.9 8.1-7-.1-2.2-.5-3.9-.9-4.6-2-3.4-8.6-.6-10.7 7.9-2.9 11.5-7.3 31.3-4.6 48.4.2 1.7-6.8-.9-6.8-.9l7.2-62.4zm12.6 25.8c2.1-3.1 3-7.6 3.2-11.5-3.1 2.2-6 5-7 7.8-1.5 4.5-.6 10 3.8 3.7z" id="path71"/><path class="st0" d="M204 169.6c-3.4-4.1-1.1-12.6-.1-15.9 0 0-7.4 17.6-12.4 17.2-7.3 1-5-7.3-4.2-14.8.7-6.7 2.1-14.2 1.2-14.9-2.8-.8-4.6 1.8-4.6 1.8l-.8-.7c.8-.6 3.8-6.8 9.5-4.1 3.2 1.4 1.3 10 .5 16.3-.5 5-1.3 10.2.5 10.2 4 .8 10.7-21.2 13.3-25.8 0 0 2.6 2.6 5 3.4 0 0-4.9 18.5-5.3 22.7-.4 4.4 1.9 3.6 4.6 2.2.2.2.2.2.4.5.1-.1-3.4 5.1-7.6 1.9z" id="path73"/><path class="st0" d="M231.3 142.4c-3.8-2.7-12.5 11.1-10.4 19.5 1.7 6.9 8.2 9.4 16 3.1 1.1-1.2 1 2.2 1 2.2s-14 11.2-21.1-3c-7.1-14.3 7.7-30.7 16.9-23.8 2.2 1.7 5 12.8-5.1 8.6 0 .1 4.7-5.2 2.7-6.6z" id="path75"/><path class="st0" d="M263.8 156.7s8.3-17.2 13.3-16.9c11.7-1-2.1 26.5 1.2 29.8 2.8.8 6.1-2.3 6.1-2.3l.1 1.3c-1.3.7-5 6.6-10.7 3.8-3.2-1.4.3-10.1 1.1-16.4.6-5 1.4-8.8-.4-8.8-3.5-.4-10.6 18.2-11.4 24.1 0 0-3.2-.1-5.6-.9 0 0 .4-3.9 2.9-15.2.6-5 .4-9.2-1.4-9.3-3.5-.4-10.1 21.2-11.4 25.4 0 0-3.7-.5-6.1-1.3 0 0 4-20.2 4.5-24.4.5-4.4-4.5-3.2-7.2-1.8-.2-.2-.2-.6-.4-.9 0 0 6.1-5.2 10.4-1.9 3.3 4.2.4 12.7-.6 16 0 0 6.5-17.8 12.6-17.5 5.1.7 4.3 13.2 3 17.2zm-10.9-25.1c.4-.5.6-1.6.4-2.7-.5.4 14.8-.8 21.8-3.3 2.2-.8-.1 6.5-.1 6.5-1.2-.1-12.1 2.7-22.1-.5z" id="path77"/><path class="st0" d="M306.6 169.6c-3.4-4.1-1.1-12.6-.1-15.9 0 0-7.4 17.6-12.4 17.2-7.3 1-5-7.3-4.2-14.8.7-6.7 2.1-14.2 1.2-14.9-2.8-.8-4.6 1.8-4.6 1.8l-.8-.7c.8-.6 3.8-6.8 9.5-4.1 3.2 1.4 1.3 10 .5 16.3-.5 5-1.3 10.2.5 10.2 4 .8 10.7-21.2 13.3-25.8 0 0 2.6 2.6 5 3.4 0 0-4.9 18.5-5.3 22.7-.4 4.4 1.9 3.6 4.6 2.2.2.2.2.2.4.5.1-.1-3.3 5.1-7.6 1.9z" id="path79"/><path class="st0" d="M325.7 142.3c3.2 1.6 2 6.8 1.4 14.2 3.1-7.3 7.6-20.5 16.5-20.6 12.2-.1 5 11.5.8 6 0-.1-.3-8.3-6.8.8-2.5 3.4-5.8 8.7-6.8 12.8 1.3-.3 3-.7 5.2-.9 8.3.2 1.6 13.7 8.8 16.6 2.9.5 4.9-1.6 4.9-1.6l.4.7s-4.1 7.4-10.7 5.2c-4.1-1.9-2.7-18.3-6.8-17.2-8.2 1.7-6.7 9-8.4 14.2 0 0-2.5-1-5.3-1.5 0 0 3.1-19.4 3.1-23.5 0-4.4-2.2-3.4-4.7-1.7l-.4-.4c-.3 0 4.3-6 8.8-3.1z" id="path81"/></g></g></svg>